<svg width="70" height="70" viewBox="0 0 70 70" fill="none" xmlns="http://www.w3.org/2000/svg">
<path d="M51.4842 55.9393C52.9044 55.9393 54.0598 54.7839 54.0598 53.3637V48.4242C54.0598 47.004 52.9044 45.8486 51.4842 45.8486H43.6224C42.2023 45.8486 41.0469 47.004 41.0469 48.4242V53.3637C41.0469 54.7839 42.2023 55.9393 43.6224 55.9393H51.4842ZM52.0091 48.4242V53.3637C52.0091 53.6531 51.7737 53.8886 51.4842 53.8886H48.5786V47.8994H51.4842C51.7737 47.8995 52.0091 48.1348 52.0091 48.4242ZM43.0976 53.3637V48.4242C43.0976 48.1348 43.333 47.8994 43.6224 47.8994H46.5279V53.8886H43.6224C43.333 53.8886 43.0976 53.6533 43.0976 53.3637Z" fill="#E7B97E"/>
<path d="M30.0576 28.8547H33.5021V29.4425C33.5021 29.977 33.6597 30.4952 33.9582 30.9411C35.0383 32.5549 36.3508 33.999 37.859 35.2336C38.2972 35.5919 38.9433 35.5278 39.3021 35.0896C39.6608 34.6513 39.5963 34.0053 39.1581 33.6466C37.8061 32.54 36.63 31.2459 35.6624 29.8004C35.5908 29.6932 35.5528 29.5695 35.5528 29.4423V10.6178C35.5528 10.4907 35.5918 10.3653 35.6652 10.2556C39.0035 5.27198 44.5757 2.35394 50.5664 2.4443C53.5529 2.49051 56.4945 3.30834 59.078 4.81056L62.4684 7.3715C65.9221 10.697 67.8418 15.1451 67.8755 19.9033C67.9146 25.466 65.2769 30.7795 60.8199 34.1174C60.3667 34.4567 60.2744 35.0994 60.6138 35.5528C60.8152 35.8217 61.1234 35.9635 61.4354 35.9635C61.6491 35.9635 61.8649 35.8969 62.0492 35.7588C64.4592 33.954 66.4514 31.5846 67.8106 28.9065C69.2166 26.1363 69.9483 23.0181 69.9263 19.889C69.8886 14.5518 67.7285 9.56564 63.8437 5.84905C63.815 5.82157 63.7847 5.79559 63.753 5.7718L60.2656 3.13758C60.2338 3.11339 60.2004 3.09124 60.166 3.07114C57.2658 1.37164 53.9575 0.445945 50.5984 0.393994C43.9102 0.290501 37.6886 3.55046 33.9614 9.11475C33.6611 9.56345 33.5024 10.0832 33.5024 10.6179V11.2058H30.0578C28.471 11.2058 27.1526 12.3768 26.9212 13.8999H1.02536C0.458951 13.8999 0 14.3589 0 14.9253C0 15.4917 0.458951 15.9506 1.02536 15.9506H26.8848V18.202H18.6062C18.0398 18.202 17.5808 18.661 17.5808 19.2274C17.5808 19.7938 18.0398 20.2528 18.6062 20.2528H26.8848V24.3665H21.0535L19.1909 22.5038C18.827 22.1398 18.3432 21.9393 17.8283 21.9393C17.3137 21.9393 16.8297 22.1397 16.4658 22.5038L14.1332 24.8365L12.1117 22.8149C11.3603 22.0638 10.1381 22.0638 9.3867 22.8149L7.91305 24.2887H1.02536C0.458951 24.2887 0 24.7477 0 25.3141C0 25.8805 0.458951 26.3394 1.02536 26.3394H8.33782C8.60975 26.3394 8.87046 26.2314 9.06296 26.0392L10.7493 24.3527L12.7708 26.3743C13.1465 26.7499 13.6396 26.9376 14.1332 26.9376C14.6264 26.9376 15.1201 26.7497 15.4958 26.3742L17.8284 24.0414L19.9039 26.117C20.0962 26.3092 20.357 26.4172 20.629 26.4172H26.9719C27.3044 27.8131 28.5612 28.8547 30.0576 28.8547ZM28.9355 14.3783C28.9355 13.7598 29.4389 13.2564 30.0576 13.2564H33.5021V26.804H30.0576C29.4389 26.804 28.9355 26.3006 28.9355 25.682V14.3783Z" fill="#E7B97E"/>
<path d="M14.7019 20.2529C15.2684 20.2529 15.7273 19.794 15.7273 19.2275C15.7273 18.6611 15.2684 18.2021 14.7019 18.2021H13.584C13.0176 18.2021 12.5586 18.6611 12.5586 19.2275C12.5586 19.794 13.0176 20.2529 13.584 20.2529H14.7019Z" fill="#E7B97E"/>
<path d="M69.9804 49.0387C69.9074 48.5268 69.6396 48.0739 69.2259 47.7634L64.9958 44.5887C64.5429 44.2488 63.9 44.3407 63.5602 44.7934C63.2203 45.2463 63.312 45.8892 63.7648 46.229L67.903 49.3346L66.6026 51.0674L48.1694 37.2328C47.8046 36.9591 47.3031 36.9591 46.9384 37.2328L28.505 51.0672L27.2044 49.3345L46.9035 34.5502C47.2863 34.2625 47.821 34.2625 48.2041 34.5502L60.27 43.6056C60.7229 43.9459 61.3657 43.8537 61.7055 43.4011C62.0455 42.9481 61.9538 42.3055 61.5009 41.9656L58.6733 39.8435V29.8443C60.653 29.3792 62.132 27.5997 62.132 25.4801V14.5808C62.132 12.1083 60.1204 10.0967 57.6479 10.0967C55.1754 10.0967 53.1639 12.1083 53.1639 14.5808V25.4801C53.1639 27.5997 54.6428 29.3793 56.6226 29.8443V38.3044L49.4351 32.91C48.3275 32.0785 46.7803 32.0788 45.6725 32.91L25.8817 47.7632C25.4681 48.0737 25.2002 48.5265 25.1272 49.0385C25.0542 49.5504 25.185 50.0602 25.4953 50.4736L26.9337 52.3902C27.3137 52.8962 27.8955 53.1632 28.4845 53.1631C28.8889 53.1631 29.2966 53.0371 29.6441 52.7763L30.422 52.1924V55.4377C30.422 56.0041 30.8809 56.4631 31.4474 56.4631C32.0138 56.4631 32.4727 56.0041 32.4727 55.4377V50.6533L47.5539 39.3348L62.6349 50.6534V62.9948H53.3517C52.6587 60.4423 50.3226 58.5591 47.5537 58.5591C44.7848 58.5591 42.4488 60.4423 41.7559 62.9948H32.4729V59.8075C32.4729 59.2411 32.0139 58.7822 31.4475 58.7822C30.8811 58.7822 30.4221 59.2411 30.4221 59.8075V67.5572H29.0614C28.495 67.5572 28.0361 68.0162 28.0361 68.5826C28.0361 69.149 28.495 69.6079 29.0614 69.6079H65.7525C66.3189 69.6079 66.7779 69.149 66.7779 68.5826C66.7779 68.0162 66.3189 67.5572 65.7525 67.5572H64.6856V52.1925L65.4635 52.7764C66.3174 53.4171 67.5331 53.244 68.1737 52.3901L69.6121 50.4737C69.9224 50.0602 70.0533 49.5506 69.9804 49.0387ZM55.2147 25.4801V14.5808C55.2147 13.2391 56.3062 12.1474 57.6479 12.1474C58.9896 12.1474 60.0813 13.2389 60.0813 14.5808V25.4801C60.0813 26.4551 59.5034 27.2958 58.6733 27.6837V26.7109C58.6733 26.1445 58.2143 25.6856 57.6479 25.6856C57.0815 25.6856 56.6226 26.1445 56.6226 26.7109V27.6837C55.7926 27.2958 55.2147 26.4551 55.2147 25.4801ZM32.4727 65.0456H41.5457V67.5574H32.4727V65.0456ZM43.5965 67.5574V64.5671C43.5965 62.385 45.3716 60.6099 47.5537 60.6099C49.7358 60.6099 51.5111 62.385 51.5111 64.5671V67.5574H43.5965ZM53.5618 67.5574V65.0456H62.6347V67.5574H53.5618Z" fill="#E7B97E"/>
</svg>
