<svg width="60" height="70" viewBox="0 0 60 70" fill="none" xmlns="http://www.w3.org/2000/svg">
<path d="M51.6787 56.7529L35.7491 53.6231C35.563 53.1651 35.4349 52.6865 35.3675 52.1946C35.2352 51.2311 35.343 50.2396 35.6795 49.327L35.8548 48.8514C36.034 48.7244 36.2093 48.5914 36.3803 48.4523C42.4397 43.5508 45.5122 39.1457 45.5122 35.359C45.5122 34.9636 45.4958 34.5658 45.4636 34.1767C45.4631 34.1713 45.4627 34.166 45.4621 34.1608C45.441 33.9469 45.4228 33.6506 45.4075 33.2805C47.4599 32.7312 49.0134 30.5765 49.0393 28.0097C49.0438 27.5509 49.0015 27.1019 48.9129 26.6662C50.2515 26.0876 51.1907 24.7543 51.1907 23.206V21.3875C51.1907 20.8212 50.7317 20.3621 50.1653 20.3621H47.098V16.0467C47.098 8.45223 40.9179 2.27363 33.3215 2.27363H33.2853V1.02539C33.2853 0.459102 32.8263 0 32.2599 0H27.759C27.1927 0 26.7336 0.459102 26.7336 1.02539V2.27363H26.4844C18.888 2.27363 12.708 8.45223 12.708 16.0467V20.3621H9.70213C9.13584 20.3621 8.67674 20.8212 8.67674 21.3875V23.206C8.67674 24.7941 9.66453 26.1558 11.0581 26.7092C10.9748 27.1344 10.9342 27.5719 10.9386 28.0098C10.9642 30.5624 12.5008 32.7075 14.5365 33.2713C14.5191 33.6458 14.4992 33.9523 14.4768 34.1802C14.4441 34.5462 14.4275 34.9429 14.4275 35.3593C14.4275 39.1448 17.4985 43.5486 23.5531 48.4466C23.6946 48.5617 23.839 48.6727 23.9861 48.7796L24.188 49.3272C24.5246 50.2402 24.6325 51.2323 24.4997 52.1963C24.4321 52.6881 24.3041 53.1665 24.118 53.6241L8.3225 56.7524C3.90867 57.6066 0.705078 61.4887 0.705078 65.9835V68.9746C0.705078 69.5409 1.16418 70 1.73047 70H34.3105C34.877 70 35.3359 69.5409 35.3359 68.9746C35.3359 68.4083 34.877 67.9492 34.3105 67.9492H17.4634V64.9597H42.4769V67.9492H39.1222C38.5558 67.9492 38.0968 68.4083 38.0968 68.9746C38.0968 69.5409 38.5558 70 39.1222 70H58.2679C58.8343 70 59.2933 69.5409 59.2933 68.9746V65.9835C59.2933 61.4887 56.0897 57.6064 51.6787 56.7529ZM48.1011 62.9089H44.5275V57.4379L48.1011 58.1399V62.9089ZM46.9886 27.9893C46.9744 29.3981 46.3006 30.6079 45.3582 31.1134C45.3458 29.9585 45.3457 28.5564 45.3588 26.9737H46.8801C46.955 27.3018 46.992 27.6448 46.9886 27.9893ZM33.3218 4.32441C39.4419 4.32441 44.4817 9.03602 45.0029 15.0213H40.622C40.0556 15.0213 39.5966 15.4804 39.5966 16.0467C39.5966 16.613 40.0556 17.0721 40.622 17.0721H45.0473V20.3621H33.2856V4.32441H33.3218ZM28.7846 17.0721H31.2348V20.3621H28.7846V17.0721ZM31.2348 2.05078V15.0213H28.7846V2.05078H31.2348ZM14.7591 17.0721H19.1844C19.7507 17.0721 20.2098 16.613 20.2098 16.0467C20.2098 15.4804 19.7507 15.0213 19.1844 15.0213H14.8035C15.3247 9.03602 20.3647 4.32441 26.4846 4.32441H26.7339V20.3621H14.7591V17.0721ZM12.9895 27.9893C12.9861 27.6445 13.023 27.3018 13.0979 26.9737H14.6147C14.6229 28.5111 14.6168 29.921 14.5978 31.1013C13.667 30.5889 13.0036 29.3869 12.9895 27.9893ZM16.4786 35.3593C16.4786 35.0034 16.4924 34.668 16.5188 34.3716C16.6488 33.0501 16.6803 29.8558 16.6654 26.9735H18.9881C19.5544 26.9735 20.0135 26.5144 20.0135 25.9481C20.0135 25.3818 19.5544 24.9227 18.9881 24.9227H12.4451C11.4982 24.9227 10.7277 24.1526 10.7277 23.206V22.4129H49.1399V23.206C49.1399 24.1526 48.3695 24.9227 47.4224 24.9227H23.7828C23.2165 24.9227 22.7574 25.3818 22.7574 25.9481C22.7574 26.5144 23.2165 26.9735 23.7828 26.9735H43.3081C43.2897 29.2631 43.2843 32.9595 43.4205 34.3539C43.4477 34.6845 43.4615 35.0227 43.4615 35.3593C43.4615 38.4521 40.5669 42.4285 35.089 46.8595C33.6521 48.0271 31.8439 48.6693 29.9905 48.6693C29.9783 48.6693 29.9663 48.6693 29.954 48.6693C28.0985 48.6693 26.2856 48.0256 24.8455 46.8541C19.3718 42.4259 16.4786 38.4512 16.4786 35.3593ZM29.9494 50.7199H29.9949C31.1459 50.7199 32.2844 50.5214 33.3593 50.1426C33.2384 50.9126 33.2294 51.6998 33.3356 52.4736C33.4442 53.2636 33.6685 54.0282 34.0035 54.7503C33.8875 56.8939 32.1065 58.6022 29.9339 58.6022C28.8659 58.6022 27.8565 58.1922 27.0914 57.4479C26.3497 56.7261 25.9187 55.7752 25.8641 54.7505C26.1986 54.0293 26.423 53.2655 26.5317 52.4759C26.6395 51.6919 26.6291 50.894 26.5039 50.1143C27.603 50.5117 28.7699 50.7201 29.9494 50.7199ZM11.839 58.1465L15.4126 57.4388V62.9089H11.839V58.1465ZM2.75572 67.9492V65.9835C2.75572 62.4691 5.26068 59.4337 8.71639 58.765L9.78812 58.5528V67.9492H2.75572ZM15.4126 67.9316H11.839V64.9599H15.4126V67.9316ZM17.4634 62.9089V57.0326L23.9288 55.7523C24.1698 56.9492 24.7644 58.0449 25.6613 58.9177C26.8114 60.0368 28.3288 60.6531 29.9339 60.6531C32.8935 60.6531 35.3696 58.5441 35.9376 55.7504L42.4768 57.0351V62.9091H17.4634V62.9089ZM48.1011 64.9597V67.9314H44.5275V64.9597H48.1011ZM57.2425 67.9492H50.152V58.5428L51.2864 58.7657C54.7376 59.4336 57.2425 62.469 57.2425 65.9833V67.9492Z" fill="#E7B97E"/>
<path d="M29.934 42.5699C32.1126 42.5699 34.0271 41.1024 34.5899 39.001C34.7364 38.454 34.4117 37.8918 33.8647 37.7452C33.3174 37.5984 32.7553 37.9234 32.6088 38.4705C32.2858 39.6767 31.1859 40.5191 29.934 40.5191C28.6829 40.5191 27.5834 39.6767 27.2603 38.4705C27.1138 37.9234 26.5509 37.5985 26.0046 37.7452C25.4575 37.8917 25.1328 38.454 25.2793 39.001C25.842 41.1024 27.7561 42.5699 29.934 42.5699Z" fill="#E7B97E"/>
</svg>
