<svg width="70" height="70" viewBox="0 0 70 70" fill="none" xmlns="http://www.w3.org/2000/svg">
<path d="M38.9562 32.5596L39.5237 31.9921C39.7467 31.7691 39.6858 31.3029 39.4224 31.0394C39.1182 30.7352 38.6926 30.715 38.4696 30.938L37.8616 31.5458C35.8753 29.884 33.0581 28.8501 30.5042 31.4042C27.9098 33.9984 29.1868 36.6132 30.3623 39.0454L24.9709 44.4368C22.7617 42.0249 23.7954 40.0183 23.2279 39.4508C22.8429 39.0658 21.9507 39.2276 21.5454 39.633C20.6944 40.4842 20.8767 43.464 23.3697 46.038L22.7008 46.7068C22.4779 46.9298 22.4982 47.3554 22.8023 47.6596C23.0657 47.9231 23.532 47.9839 23.7549 47.7609L24.4846 47.0313C26.8762 48.8554 29.6531 48.9974 32.126 46.5246C34.9026 43.7478 33.9095 41.052 32.815 38.7009L37.4361 34.0796C38.8345 35.64 38.7334 36.8766 39.1589 37.3021C39.6251 37.7683 40.4967 37.4238 40.821 37.0996C41.6316 36.2891 40.3341 34.0594 38.9562 32.5596ZM30.3421 45.0653C29.0044 46.4029 27.464 46.4435 25.9841 45.3693L30.9499 40.4036C31.5986 41.9846 31.8825 43.5248 30.3421 45.0653ZM32.1864 37.3836C31.4365 35.7417 30.8891 34.262 32.2877 32.8637C33.5849 31.5663 35.1051 32.0327 36.4427 33.1272L32.1864 37.3836Z" fill="#E7B97E"/>
<path d="M68.4291 1.52304C66.1519 -0.75415 62.3727 -0.433681 60.5097 2.18913L52.7068 13.1746C45.105 7.5764 34.3189 8.21446 27.4434 15.0896L0.732803 41.8005C-0.213018 42.7465 -0.213018 44.2857 0.732803 45.2315L24.792 69.2907C25.7381 70.2365 27.2769 70.2365 28.223 69.2907C29.002 68.5117 54.3013 43.2124 54.9337 42.58C58.1406 39.3731 60.1334 35.1228 60.5451 30.612C60.5966 30.0483 60.1814 29.5497 59.6177 29.4984C59.0562 29.4476 58.5555 29.8622 58.5041 30.4258C58.1359 34.4601 56.3531 38.262 53.4844 41.1307L34.3983 60.2167C28.9852 59.5066 23.9321 57.2828 19.7574 53.7679C19.3245 53.4034 18.678 53.4588 18.3135 53.8918C17.949 54.3246 18.0043 54.971 18.4373 55.3357C22.5178 58.7713 27.3809 61.0563 32.6051 62.0097L26.7735 67.8413C26.6271 67.988 26.3879 67.988 26.2412 67.8413L2.18216 43.7821C2.03792 43.638 2.03669 43.3953 2.18216 43.2499L8.01362 37.4184C8.98829 42.7621 11.3535 47.7189 14.9211 51.8575C15.2906 52.2863 15.9378 52.3344 16.3663 51.9647C16.7951 51.5953 16.8431 50.9482 16.4735 50.5195C12.8308 46.2934 10.5321 41.1527 9.8071 35.6251L28.8929 16.5391C35.7819 9.65015 47.0959 9.74257 53.858 16.927L51.1325 18.8629C48.7989 16.5443 44.9881 16.5226 42.6342 18.8766C40.2816 21.2295 40.2814 25.0366 42.6342 27.3894C44.981 29.7362 48.8 29.7363 51.1469 27.3894C52.9978 25.5384 53.3877 22.7721 52.3188 20.5343L55.1776 18.5038C56.7927 20.6829 57.8711 23.2016 58.3308 25.9082C58.4258 26.4663 58.9549 26.8408 59.5127 26.747C60.0707 26.6521 60.4462 26.1231 60.3515 25.565C59.8396 22.5512 58.6424 19.7457 56.8496 17.3164L67.7523 9.57235C70.4207 7.67675 70.7414 3.83536 68.4291 1.52304ZM49.6971 25.9401C48.1495 27.4881 45.6308 27.4878 44.0832 25.9401C42.5317 24.3886 42.5316 21.8776 44.0833 20.3261C44.8571 19.5521 45.8736 19.1652 46.8903 19.1652C47.3599 19.1652 47.8293 19.2489 48.2748 19.4141L46.9137 21.3306C46.552 21.84 46.6099 22.5301 47.0518 22.9719C47.4936 23.4138 48.1839 23.4715 48.6929 23.1097L50.6092 21.7487C51.1318 23.1589 50.8287 24.8087 49.6971 25.9401ZM66.5652 7.9011L55.5432 15.7299C55.1298 15.2779 54.7781 14.922 54.2937 14.4795L62.1805 3.37612C63.311 1.78458 65.6013 1.59372 66.9796 2.97253C68.3974 4.38989 68.1974 6.74159 66.5652 7.9011Z" fill="#E7B97E"/>
</svg>
