<svg width="62" height="71" viewBox="0 0 62 71" fill="none" xmlns="http://www.w3.org/2000/svg">
<path d="M58.5083 8.67194H55.1847V3.89417C55.1847 2.02263 53.662 0.5 51.7906 0.5H7.97085C6.09931 0.5 4.57667 2.02263 4.57667 3.89417V8.6718H1.45703C0.890605 8.6718 0.431641 9.13077 0.431641 9.69719C0.431641 10.2636 0.890605 10.7226 1.45703 10.7226H4.57667V15.5002C4.57667 17.3717 6.09931 18.8944 7.97071 18.8944H9.45711V22.1625C9.45711 24.4081 11.2841 26.2351 13.5297 26.2351C14.2652 26.2351 14.9552 26.0381 15.5515 25.6956V30.623C15.5515 32.8686 17.3784 34.6956 19.6242 34.6956C21.8699 34.6956 23.6969 32.8686 23.6969 30.623V18.8944H27.582C28.1484 18.8944 28.6074 18.4354 28.6074 17.869C28.6074 17.3026 28.1484 16.8436 27.582 16.8436H26.1603C26.5305 16.2203 26.7439 15.4934 26.7439 14.7172V9.56088C27.3672 9.93098 28.0946 10.1437 28.8705 10.1437C31.1738 10.1437 33.0476 8.26985 33.0476 5.96642V2.55091H51.7908C52.5314 2.55091 53.1339 3.15343 53.1339 3.89417V15.5005C53.1339 16.2411 52.5315 16.8437 51.7908 16.8437H32.3674C31.801 16.8437 31.3421 17.3027 31.3421 17.8691C31.3421 18.4356 31.801 18.8945 32.3674 18.8945H51.7908C53.6623 18.8945 55.1847 17.3719 55.1847 15.5003V10.7229H58.5083C59.0638 10.7229 59.5159 11.1748 59.5159 11.7303V22.1935C59.5159 23.102 58.9079 23.9176 58.0372 24.177L30.5386 32.3677C29.5475 32.6629 28.8551 33.5913 28.8551 34.6255V36.4244H24.2626C22.8197 36.4244 21.6458 37.5983 21.6458 39.0412V40.4534C21.6458 41.776 22.6331 42.8697 23.9089 43.0434L22.0168 62.0317C21.5663 66.5527 25.1214 70.5001 29.6831 70.5001C34.2267 70.5001 37.8019 66.5709 37.3493 62.0318L36.685 55.3629C36.629 54.7995 36.1275 54.3877 35.5631 54.4442C34.9995 54.5003 34.5882 55.0027 34.6444 55.5661L35.3087 62.2351C35.6393 65.5523 33.0304 68.4491 29.6831 68.4491C26.3492 68.4491 23.7253 65.566 24.0574 62.2351L25.9672 43.0702H33.3988L34.1672 50.7808C34.2234 51.3442 34.7235 51.757 35.2894 51.6994C35.8528 51.6434 36.2642 51.1409 36.208 50.5773L35.46 43.0702H35.6864C37.1294 43.0702 38.3032 41.8962 38.3032 40.4534V39.0412C38.3032 37.5983 37.1292 36.4244 35.6864 36.4244H30.9059V34.6255C30.9059 34.4916 30.9955 34.3717 31.1237 34.3333L58.6225 26.1425C60.356 25.6263 61.5666 24.0023 61.5666 22.1935V11.7303C61.567 10.0439 60.1949 8.67194 58.5083 8.67194ZM15.5515 22.1629C15.5515 23.2777 14.6445 24.1846 13.5297 24.1846C12.4149 24.1846 11.508 23.2777 11.508 22.1629V18.8948H15.5515V22.1629ZM21.646 30.6232C21.646 31.738 20.739 32.6448 19.6242 32.6448C18.5095 32.6448 17.6024 31.738 17.6024 30.6232C17.6024 29.1939 17.6024 20.229 17.6024 18.8945H21.646V30.6232ZM28.8705 8.09266C27.6978 8.09266 26.7439 7.13878 26.7439 5.96628C26.7439 5.39985 26.285 4.94089 25.7185 4.94089C25.1521 4.94089 24.6932 5.39985 24.6932 5.96628V14.7172C24.6932 15.8897 23.7394 16.8436 22.5669 16.8436C15.0648 16.8436 15.4377 16.8436 7.97085 16.8436C7.23024 16.8436 6.62772 16.2411 6.62772 15.5003V3.89417C6.62772 3.15357 7.23011 2.55091 7.97085 2.55091H30.9967V5.96642H30.9968C30.9967 7.13878 30.043 8.09266 28.8705 8.09266ZM35.6866 38.4752C35.9934 38.4752 36.2524 38.7344 36.2524 39.0411V40.4532C36.2524 40.7599 35.9932 41.0191 35.6866 41.0191C31.535 41.0191 28.4626 41.0191 24.2626 41.0191C23.956 41.0191 23.6968 40.7599 23.6968 40.4532V39.0411C23.6968 38.7344 23.956 38.4752 24.2626 38.4752H35.6866Z" fill="#E7B97E"/>
<path d="M29.6847 58.9941C27.7887 58.9941 26.2461 60.5367 26.2461 62.4327C26.2461 64.3288 27.7887 65.8712 29.6847 65.8712C31.5807 65.8712 33.123 64.3288 33.123 62.4327C33.123 60.5367 31.5807 58.9941 29.6847 58.9941ZM29.6848 63.8202C28.9196 63.8202 28.2971 63.1977 28.2971 62.4326C28.2971 61.6674 28.9196 61.0449 29.6848 61.0449C30.4498 61.0448 31.0724 61.6673 31.0724 62.4326C31.0724 63.1978 30.4499 63.8202 29.6848 63.8202Z" fill="#E7B97E"/>
</svg>
