<svg width="70" height="70" viewBox="0 0 70 70" fill="none" xmlns="http://www.w3.org/2000/svg">
<path d="M13.6696 54.3926C10.9731 54.3926 8.7793 56.5864 8.7793 59.2829C8.7793 61.9794 10.9731 64.1732 13.6696 64.1732C16.3662 64.1732 18.5599 61.9794 18.5599 59.2829C18.5599 56.5864 16.3662 54.3926 13.6696 54.3926ZM13.6696 62.1243C12.1029 62.1243 10.8283 60.8497 10.8283 59.283C10.8283 57.7163 12.1029 56.4417 13.6696 56.4417C15.2364 56.4417 16.5109 57.7163 16.5109 59.283C16.5109 60.8497 15.2364 62.1243 13.6696 62.1243Z" fill="#E7B97E"/>
<path d="M32.7806 59.2829C32.7806 56.5862 30.5868 54.3926 27.8903 54.3926C25.1938 54.3926 23 56.5864 23 59.2829C23 61.9794 25.1938 64.1732 27.8903 64.1732C30.5868 64.1732 32.7806 61.9794 32.7806 59.2829ZM25.049 59.2829C25.049 57.7162 26.3236 56.4416 27.8903 56.4416C29.4571 56.4416 30.7316 57.7162 30.7316 59.2829C30.7316 60.8495 29.457 62.1242 27.8903 62.1242C26.3235 62.1242 25.049 60.8495 25.049 59.2829Z" fill="#E7B97E"/>
<path d="M47.0013 59.2829C47.0013 56.5862 44.8075 54.3926 42.111 54.3926C39.4145 54.3926 37.2207 56.5864 37.2207 59.2829C37.2207 61.9794 39.4145 64.1732 42.111 64.1732C44.8075 64.1732 47.0013 61.9794 47.0013 59.2829ZM39.2696 59.2829C39.2696 57.7162 40.5442 56.4416 42.1109 56.4416C43.6775 56.4416 44.9521 57.7162 44.9521 59.2829C44.9521 60.8495 43.6775 62.1242 42.1109 62.1242C40.5442 62.1242 39.2696 60.8495 39.2696 59.2829Z" fill="#E7B97E"/>
<path d="M61.222 59.2829C61.222 56.5862 59.0282 54.3926 56.3317 54.3926C53.6351 54.3926 51.4414 56.5864 51.4414 59.2829C51.4414 61.9794 53.6352 64.1732 56.3317 64.1732C59.0282 64.1732 61.222 61.9794 61.222 59.2829ZM53.4904 59.2829C53.4904 57.7162 54.765 56.4416 56.3317 56.4416C57.8984 56.4416 59.173 57.7162 59.173 59.2829C59.173 60.8495 57.8984 62.1242 56.3317 62.1242C54.7649 62.1242 53.4904 60.8495 53.4904 59.2829Z" fill="#E7B97E"/>
<path d="M59.3011 48.5842H49.5828V44.5221C49.5828 43.9563 49.1241 43.4976 48.5583 43.4976C47.9924 43.4976 47.5337 43.9563 47.5337 44.5221V48.5842H19.3322V20.4286C19.3322 20.4033 19.3528 20.3825 19.3782 20.3825H28.7971V27.3911C28.7971 27.9744 29.0942 28.504 29.5918 28.8081C29.8588 28.9712 30.1573 29.0534 30.4568 29.0534C30.7155 29.0534 30.9749 28.9921 31.2154 28.8688L33.4331 27.7321L35.6506 28.8688C36.1696 29.1351 36.7765 29.1123 37.2743 28.8081C37.772 28.504 38.0691 27.9744 38.0691 27.3911V20.3825H47.4879C47.5132 20.3825 47.534 20.4032 47.534 20.4286V39.783C47.534 40.3489 47.9927 40.8076 48.5585 40.8076C49.1244 40.8076 49.5831 40.3489 49.5831 39.783V37.1713H51.4823C52.7171 37.1713 53.7219 36.1667 53.7219 34.9317V32.3983C53.7219 32.3194 53.7696 32.2475 53.8378 32.2235C54.3119 32.056 54.7821 31.8613 55.2355 31.645C55.3026 31.6133 55.3854 31.6298 55.4419 31.6863L57.2331 33.4774C58.1063 34.3504 59.5271 34.3504 60.4003 33.4774L63.8943 29.9835C64.7675 29.1102 64.7675 27.6893 63.8943 26.8161L62.1031 25.0251C62.0465 24.9685 62.03 24.8854 62.062 24.8185C62.2783 24.3651 62.4728 23.895 62.6404 23.421C62.6646 23.3526 62.7365 23.3049 62.8153 23.3049H65.3487C66.5835 23.3049 67.5883 22.3001 67.5883 21.0652V16.1239C67.5883 14.889 66.5837 13.8843 65.3487 13.8843H62.8153C62.7364 13.8843 62.6645 13.8366 62.6404 13.7683C62.4728 13.2942 62.2783 12.824 62.0621 12.3708C62.0301 12.3037 62.0465 12.2207 62.1031 12.1642L63.8943 10.3731C64.7675 9.49984 64.7675 8.07893 63.8943 7.2057L60.4003 3.71172C59.5271 2.83877 58.1063 2.83877 57.2331 3.71172L55.4416 5.50287C55.385 5.55947 55.3019 5.57629 55.2349 5.54402C54.7821 5.32801 54.3121 5.13359 53.8374 4.96557C53.7692 4.94137 53.7214 4.86945 53.7214 4.7907V2.2573C53.7214 1.02246 52.7167 0.0175781 51.4819 0.0175781H46.5406C45.3057 0.0175781 44.301 1.02232 44.301 2.2573V4.79057C44.301 4.86945 44.2533 4.94137 44.1846 4.96557C43.7102 5.13332 43.2402 5.32801 42.7874 5.54402C42.7204 5.57574 42.6374 5.55934 42.5808 5.50273L40.7896 3.71158C39.9164 2.83863 38.4956 2.83863 37.6224 3.71158L34.1284 7.20557C33.2552 8.07879 33.2552 9.49971 34.1284 10.3729L35.9197 12.1641C35.9762 12.2207 35.9927 12.3037 35.9607 12.3705C35.7447 12.8233 35.5502 13.2934 35.3823 13.7681C35.3581 13.8364 35.2862 13.8841 35.2074 13.8841H32.674C31.4392 13.8841 30.4344 14.8888 30.4344 16.1237V18.3334H19.3782C18.223 18.3334 17.2832 19.2732 17.2832 20.4285V48.584H10.6991C4.79951 48.5842 0 53.3837 0 59.2832C0 65.1828 4.79951 69.9823 10.6991 69.9823H15.3813C15.9471 69.9823 16.4058 69.5236 16.4058 68.9577C16.4058 68.3919 15.9471 67.9332 15.3813 67.9332H10.6991C5.92949 67.9332 2.049 64.0528 2.049 59.2832C2.049 54.5137 5.92935 50.6332 10.6991 50.6332H59.3011C64.0706 50.6332 67.951 54.5135 67.951 59.2832C67.951 64.0528 64.0706 67.9332 59.3011 67.9332H20.1363C19.5705 67.9332 19.1118 68.3919 19.1118 68.9577C19.1118 69.5236 19.5705 69.9823 20.1363 69.9823H59.3011C65.2005 69.9823 70 65.1828 70 59.2832C70 53.3837 65.2005 48.5842 59.3011 48.5842ZM47.4878 18.3335H41.4239C41.5622 14.2667 44.9114 11.0005 49.0113 11.0005C53.1988 11.0005 56.6054 14.4071 56.6054 18.5946C56.6054 22.5896 53.5041 25.8715 49.5828 26.165V20.4286C49.5828 19.2733 48.643 18.3335 47.4878 18.3335ZM32.4834 16.1239C32.4834 16.0189 32.5689 15.9334 32.674 15.9334H35.2074C36.1542 15.9334 37.0007 15.3377 37.3141 14.4514C37.4581 14.0444 37.6249 13.6412 37.81 13.2532C38.2149 12.4043 38.0376 11.3844 37.3684 10.7154L35.5772 8.92426C35.503 8.85016 35.503 8.72916 35.5772 8.65492L39.0712 5.16094C39.1456 5.0867 39.2664 5.08643 39.3407 5.16094L41.132 6.95209C41.8011 7.62119 42.8209 7.79852 43.6696 7.39369C44.0579 7.20857 44.4611 7.04164 44.8678 6.89768C45.7544 6.58445 46.3501 5.73775 46.3501 4.79084V2.2573C46.3501 2.15217 46.4356 2.06672 46.5406 2.06672H51.4819C51.5869 2.06672 51.6724 2.15217 51.6724 2.2573V4.79057C51.6724 5.73748 52.2681 6.58418 53.1543 6.89727C53.5613 7.04137 53.9647 7.20816 54.3527 7.39328C55.2014 7.79824 56.2212 7.62092 56.8904 6.95182L58.6816 5.16066C58.7558 5.08615 58.8767 5.08643 58.9511 5.16066L62.4451 8.65465C62.5194 8.72889 62.5194 8.84988 62.4451 8.92399L60.6539 10.7151C59.9848 11.3841 59.8072 12.404 60.2123 13.2529C60.3977 13.6415 60.5645 14.0446 60.7082 14.4511C61.0215 15.3376 61.8682 15.9331 62.815 15.9331H65.3484C65.4534 15.9331 65.5389 16.0186 65.5389 16.1236V21.0649C65.5389 21.17 65.4534 21.2555 65.3484 21.2555H62.815C61.8682 21.2555 61.0217 21.8512 60.7082 22.7376C60.5645 23.144 60.3977 23.5471 60.2123 23.9357C59.8073 24.7845 59.9848 25.8042 60.6539 26.4735L62.4451 28.2646C62.5194 28.3387 62.5194 28.4597 62.4451 28.534L58.9511 32.028C58.8768 32.1023 58.756 32.1025 58.6816 32.028L56.8904 30.2369C56.2215 29.5677 55.2016 29.3902 54.3528 29.7952C53.9643 29.9804 53.5611 30.1474 53.1543 30.2911C52.2679 30.6046 51.6723 31.4513 51.6723 32.3979V34.9313C51.6723 35.0363 51.5869 35.1218 51.4817 35.1218H49.5826V28.2188C54.6346 27.9219 58.6541 23.7193 58.6541 18.5941C58.6541 13.2768 54.3282 8.95092 49.0111 8.95092C43.7814 8.95092 39.5138 13.1363 39.3746 18.333H32.4833V16.1239H32.4834ZM30.8461 20.3825H36.0198V26.7557L34.1905 25.818C33.7163 25.5748 33.1499 25.5747 32.6754 25.818L30.8461 26.7557V20.3825Z" fill="#E7B97E"/>
<path d="M28.3368 37.8984C27.4339 37.8984 26.6992 38.633 26.6992 39.5361V43.9091C26.6992 44.812 27.4338 45.5466 28.3368 45.5466H38.528C39.4309 45.5466 40.1656 44.812 40.1656 43.9091V39.5361C40.1656 38.633 39.431 37.8984 38.528 37.8984H28.3368ZM38.1165 43.4975H28.7484V39.9474H38.1165V43.4975Z" fill="#E7B97E"/>
</svg>
