<svg width="70" height="70" viewBox="0 0 70 70" fill="none" xmlns="http://www.w3.org/2000/svg">
<g clip-path="url(#clip0_1103_15125)">
<path d="M52.684 21.3291C51.0914 21.2762 49.791 20.4533 49.791 19.6041C49.791 19.1528 50.1894 18.4895 50.6936 18.4895C51.2506 18.4895 51.7019 19.2725 52.684 19.445V17.2948C51.4632 16.8307 50.0303 16.2598 50.0303 14.5615C50.0303 12.8761 51.2773 12.067 52.684 11.8678V11.496C52.684 11.3102 52.8966 11.1377 53.1887 11.1377C53.4408 11.1377 53.6928 11.3102 53.6928 11.496V11.8277C54.5158 11.8544 56.0683 12.067 56.0683 12.9823C56.0683 13.3407 55.8291 14.0702 55.2453 14.0702C54.8074 14.0702 54.5553 13.6462 53.6928 13.5794V15.517C54.9003 15.9682 56.3065 16.5915 56.3065 18.3833C56.3065 20.0287 55.2453 21.0242 53.6928 21.2762V21.6608C53.6928 21.8466 53.4402 22.0191 53.1882 22.0191C52.8966 22.0191 52.684 21.8466 52.684 21.6608V21.3291ZM52.8165 15.1981V13.6195C52.2194 13.7386 51.9673 14.044 51.9673 14.3623C51.9673 14.7474 52.3123 14.9861 52.8165 15.1981ZM53.5599 17.6532V19.4316C54.0111 19.3253 54.3695 19.0733 54.3695 18.5958C54.3695 18.1573 54.0373 17.8791 53.5599 17.6532Z" fill="#E7B97E"/>
<path d="M33.3787 35.5731C32.1071 35.5303 31.0684 34.8735 31.0684 34.1957C31.0684 33.8353 31.3867 33.3055 31.7893 33.3055C32.2342 33.3055 32.5947 33.9303 33.3787 34.0681V32.3516C32.404 31.9805 31.2596 31.5249 31.2596 30.1684C31.2596 28.8226 32.2556 28.1764 33.3787 28.0172V27.7208C33.3787 27.5724 33.548 27.4346 33.7814 27.4346C33.9827 27.4346 34.1841 27.5724 34.1841 27.7208V27.9857C34.8409 28.0071 36.081 28.1764 36.081 28.9075C36.081 29.1938 35.8898 29.7764 35.4236 29.7764C35.0738 29.7764 34.873 29.4378 34.1841 29.3844V30.9316C35.1486 31.2921 36.2717 31.7903 36.2717 33.2206C36.2717 34.5349 35.4241 35.3295 34.1841 35.5309V35.838C34.1841 35.9864 33.9827 36.1242 33.7814 36.1242C33.548 36.1242 33.3787 35.9864 33.3787 35.838V35.5731ZM33.4844 30.6774V29.4165C33.0075 29.5115 32.8062 29.7551 32.8062 30.0098C32.8062 30.3169 33.0818 30.5075 33.4844 30.6774ZM34.0778 32.6379V34.0574C34.4383 33.973 34.7245 33.7717 34.7245 33.3898C34.7245 33.04 34.4596 32.8179 34.0778 32.6379Z" fill="#E7B97E"/>
<path d="M53.0633 27.8415C59.5708 27.8415 64.8649 22.5474 64.8649 16.0399C64.8649 9.53239 59.5708 4.23828 53.0633 4.23828C51.9477 4.23828 50.8432 4.39423 49.7805 4.70131C49.7741 4.70291 49.7671 4.70505 49.7607 4.70718L49.3596 4.83162C49.3399 4.83803 49.3206 4.84444 49.3014 4.85191L48.4934 5.15686C48.4752 5.1638 48.4571 5.17128 48.4395 5.17929L48.118 5.32188C47.6004 5.55206 47.3671 6.15822 47.5972 6.67572C47.8274 7.19322 48.4341 7.42661 48.9511 7.19643L49.2453 7.06558L49.9973 6.782L50.3594 6.66931C51.2342 6.41724 52.1431 6.29013 53.0633 6.29013C58.4391 6.29013 62.8131 10.6635 62.8131 16.0399C62.8131 21.4162 58.4391 25.7902 53.0633 25.7902C47.687 25.7902 43.313 21.4162 43.313 16.0399C43.313 13.752 44.1211 11.5282 45.5892 9.77806C45.9529 9.34441 45.8963 8.69766 45.4621 8.33344C45.0284 7.96921 44.3817 8.02635 44.0175 8.46001C42.2401 10.5786 41.2617 13.2708 41.2617 16.0399C41.2617 22.5474 46.5558 27.8415 53.0633 27.8415Z" fill="#E7B97E"/>
<path d="M33.6811 40.9813C38.9918 40.9813 43.3128 36.6603 43.3128 31.3491C43.3128 26.0379 38.9918 21.7168 33.6811 21.7168C28.3699 21.7168 24.0488 26.0379 24.0488 31.3491C24.0488 36.6603 28.3699 40.9813 33.6811 40.9813ZM33.6811 23.7686C37.8606 23.7686 41.2615 27.169 41.2615 31.3491C41.2615 35.5291 37.8612 38.93 33.6811 38.93C29.5005 38.93 26.1001 35.5291 26.1001 31.3491C26.1001 27.169 29.5005 23.7686 33.6811 23.7686Z" fill="#E7B97E"/>
<path d="M68.769 44.486C67.3089 42.7429 64.9083 42.1367 62.7956 42.9773L52.0594 47.2487C50.7056 47.787 49.1942 47.8442 47.8035 47.41L31.3129 42.2392C30.3275 41.93 29.3043 41.7735 28.2714 41.7735H22.9089C22.6067 41.201 22.0058 40.809 21.3142 40.809H17.6105V40.7674C17.6105 39.7537 16.786 38.9297 15.7723 38.9297H11.3156C10.749 38.9297 10.2902 39.3884 10.2902 39.9551C10.2902 40.5217 10.749 40.981 11.3156 40.981H15.5587V62.0309H2.05132V40.981H6.62018C7.18681 40.981 7.6461 40.5217 7.6461 39.9551C7.6461 39.3884 7.18681 38.9297 6.62018 38.9297H1.83769C0.824585 38.9297 0 39.7537 0 40.7674V62.2445C0 63.2581 0.824585 64.0822 1.83769 64.0822H15.7729C16.786 64.0822 17.6105 63.2581 17.6105 62.2445V62.2029H21.3142C21.9989 62.2029 22.5954 61.8194 22.9004 61.2565C28.0674 64.1869 36.9322 65.3367 42.0517 65.7709C42.5468 65.8131 43.0434 65.8339 43.5396 65.8339C45.6646 65.8339 47.7843 65.4515 49.7459 64.7081C58.0238 61.5705 65.061 55.0961 68.5196 51.5158C70.3941 49.5756 70.5015 46.5534 68.769 44.486ZM21.0659 59.5085V60.1515H17.61V42.8604H21.0659V59.5085ZM67.044 50.091C63.7051 53.5474 56.9231 59.7937 49.019 62.7898C46.8839 63.5989 44.5356 63.923 42.2253 63.7271C30.1481 62.7022 25.0206 60.2493 23.1172 58.9787V43.8249H28.2714C29.096 43.8249 29.9126 43.9504 30.6992 44.1971L47.1824 49.3652L47.2171 49.3764C48.3611 49.7294 49.0687 50.8664 48.8636 52.02L48.8396 52.1551C48.6286 53.338 47.5258 54.1749 46.3306 54.0643L32.695 52.7831C32.1337 52.7292 31.6312 53.1442 31.5783 53.7087C31.5249 54.2726 31.9393 54.7725 32.5033 54.8254L46.1388 56.1066C46.2745 56.1194 46.4091 56.1258 46.5431 56.1258C48.6329 56.1258 50.4871 54.6064 50.8594 52.5145L50.8834 52.3794C51.0495 51.4443 50.8994 50.5166 50.5058 49.7102C51.2946 49.6349 52.0744 49.4506 52.8178 49.1548L63.5539 44.8839C64.8421 44.3717 66.3059 44.7408 67.1962 45.8035C68.2531 47.0639 68.1874 48.9075 67.044 50.091Z" fill="#E7B97E"/>
</g>
<defs>
<clipPath id="clip0_1103_15125">
<rect width="70" height="70" fill="white"/>
</clipPath>
</defs>
</svg>
