<svg width="32" height="32" viewBox="0 0 32 32" fill="none" xmlns="http://www.w3.org/2000/svg">
<g filter="url(#filter0_i_1206_913)">
<path d="M0 28.9558C0 19.2449 0 9.62243 0 0C1.67939 0 3.35878 0 5.03817 0C5.01908 3.76049 5.03817 7.56522 5.03817 11.3921C8.3397 11.4142 11.6412 11.4142 14.9427 11.4142C14.9237 7.58734 14.9237 3.78261 14.9237 0C16.6221 0 18.3206 0 20 0C20 9.64455 19.9809 19.3112 19.9809 29C18.3015 29 16.584 28.9779 14.9427 28.9558C14.9237 24.7307 14.9046 20.4615 14.9237 16.2807C11.6412 16.3249 8.28244 16.3249 5.03817 16.3249C5.03817 20.4615 5.01908 24.7307 5.03817 28.9779C3.35878 28.9558 1.66031 28.9336 0 28.9558Z" fill="#1EAB5F"/>
</g>
<path d="M12 22.2918C13.6025 22.1718 15.2113 22.0379 16.8263 21.8902C17.1268 23.649 17.7089 24.9508 18.5915 25.8233C19.493 26.6819 20.6948 27.1251 22.1972 27.139C23.7934 27.1251 24.9953 26.7096 25.8028 25.9618C26.6291 25.1724 27.0235 24.2999 27.0235 23.3305C27.0235 22.7073 26.8545 22.181 26.5164 21.7378C26.1784 21.2947 25.5775 20.9069 24.7324 20.5883C24.1502 20.3668 22.8169 19.979 20.7512 19.425C18.0845 18.7187 16.2254 17.8601 15.1549 16.8629C13.6338 15.4919 12.8826 13.8023 12.8826 11.7388C12.8826 10.3816 13.2394 9.0659 13.9343 7.76409C14.6479 6.39303 15.6808 5.2574 17.0141 4.41261C18.3474 3.54011 19.9624 3.06925 21.8592 3C24.9577 3.12464 27.2676 4.20487 28.8263 6.0468C30.385 7.81948 31.2113 9.92455 31.2864 12.3758C29.6338 12.3204 27.9812 12.2789 26.3286 12.2512C26.1221 10.8386 25.6526 9.78606 24.9577 9.1213C24.2629 8.44269 23.2113 8.08262 21.8028 8.06877C20.3756 8.09647 19.23 8.48424 18.4225 9.19054C17.8967 9.67526 17.6338 10.2708 17.6338 11.0048C17.6338 11.6557 17.8779 12.1819 18.3662 12.6251C19.0047 13.1929 20.5258 13.7607 22.9296 14.4117C25.3521 15.0626 27.1361 15.7689 28.2817 16.4613C29.446 17.1399 30.3662 18.0263 31.0047 19.148C31.662 20.2421 32 21.5716 32 23.1643C32 24.6184 31.6056 26.0172 30.8169 27.3883C30.0469 28.7732 28.939 29.8949 27.493 30.6982C26.0657 31.5014 24.2817 31.9585 22.1408 32C19.0423 31.9169 16.6385 30.9198 14.9859 29.1471C13.3146 27.4298 12.3192 25.1585 12 22.2918Z" fill="#1EAB5F"/>
<defs>
<filter id="filter0_i_1206_913" x="0" y="0" width="29.8063" height="29" filterUnits="userSpaceOnUse" color-interpolation-filters="sRGB">
<feFlood flood-opacity="0" result="BackgroundImageFix"/>
<feBlend mode="normal" in="SourceGraphic" in2="BackgroundImageFix" result="shape"/>
<feColorMatrix in="SourceAlpha" type="matrix" values="0 0 0 0 0 0 0 0 0 0 0 0 0 0 0 0 0 0 127 0" result="hardAlpha"/>
<feOffset dx="9.8063"/>
<feGaussianBlur stdDeviation="4.90315"/>
<feComposite in2="hardAlpha" operator="arithmetic" k2="-1" k3="1"/>
<feColorMatrix type="matrix" values="0 0 0 0 0 0 0 0 0 0 0 0 0 0 0 0 0 0 0.5 0"/>
<feBlend mode="normal" in2="shape" result="effect1_innerShadow_1206_913"/>
</filter>
</defs>
</svg>
