<svg width="21" height="22" viewBox="0 0 21 22" fill="none" xmlns="http://www.w3.org/2000/svg">
<path d="M1.84564 2.87301L3.51154 1.20711C3.90206 0.816582 4.53523 0.816582 4.92575 1.20711L8.35365 4.635C8.74417 5.02552 8.74417 5.65869 8.35365 6.04921L6.03502 8.36784C5.67321 8.72964 5.58352 9.28237 5.81234 9.74003C7.13515 12.3856 9.28037 14.5309 11.926 15.8537C12.3836 16.0825 12.9364 15.9928 13.2982 15.631L15.6168 13.3124C16.0073 12.9218 16.6405 12.9218 17.031 13.3124L20.4589 16.7403C20.8494 17.1308 20.8494 17.764 20.4589 18.1545L18.793 19.8204C16.6817 21.9317 13.3391 22.1693 10.9504 20.3777L8.05774 18.2083C6.31421 16.9006 4.76539 15.3518 3.45774 13.6083L1.28828 10.7156C-0.503263 8.32693 -0.265712 4.98436 1.84564 2.87301Z" fill="#1EAB5F"/>
</svg>
